<svg aria-roledescription="flowchart-v2" role="graphics-document document" viewBox="-8 -8 1170.94140625 1181" style="max-width: 1170.94140625px;" xmlns="http://www.w3.org/2000/svg" width="100%" id="mermaid-svg-1753885713597-2jfzfqos8"><style>#mermaid-svg-1753885713597-2jfzfqos8{font-family:"trebuchet ms",verdana,arial,sans-serif;font-size:16px;fill:rgba(204, 204, 204, 0.87);}#mermaid-svg-1753885713597-2jfzfqos8 .error-icon{fill:#bf616a;}#mermaid-svg-1753885713597-2jfzfqos8 .error-text{fill:#bf616a;stroke:#bf616a;}#mermaid-svg-1753885713597-2jfzfqos8 .edge-thickness-normal{stroke-width:2px;}#mermaid-svg-1753885713597-2jfzfqos8 .edge-thickness-thick{stroke-width:3.5px;}#mermaid-svg-1753885713597-2jfzfqos8 .edge-pattern-solid{stroke-dasharray:0;}#mermaid-svg-1753885713597-2jfzfqos8 .edge-pattern-dashed{stroke-dasharray:3;}#mermaid-svg-1753885713597-2jfzfqos8 .edge-pattern-dotted{stroke-dasharray:2;}#mermaid-svg-1753885713597-2jfzfqos8 .marker{fill:rgba(204, 204, 204, 0.87);stroke:rgba(204, 204, 204, 0.87);}#mermaid-svg-1753885713597-2jfzfqos8 .marker.cross{stroke:rgba(204, 204, 204, 0.87);}#mermaid-svg-1753885713597-2jfzfqos8 svg{font-family:"trebuchet ms",verdana,arial,sans-serif;font-size:16px;}#mermaid-svg-1753885713597-2jfzfqos8 .label{font-family:"trebuchet ms",verdana,arial,sans-serif;color:rgba(204, 204, 204, 0.87);}#mermaid-svg-1753885713597-2jfzfqos8 .cluster-label text{fill:#ffffff;}#mermaid-svg-1753885713597-2jfzfqos8 .cluster-label span,#mermaid-svg-1753885713597-2jfzfqos8 p{color:#ffffff;}#mermaid-svg-1753885713597-2jfzfqos8 .label text,#mermaid-svg-1753885713597-2jfzfqos8 span,#mermaid-svg-1753885713597-2jfzfqos8 p{fill:rgba(204, 204, 204, 0.87);color:rgba(204, 204, 204, 0.87);}#mermaid-svg-1753885713597-2jfzfqos8 .node rect,#mermaid-svg-1753885713597-2jfzfqos8 .node circle,#mermaid-svg-1753885713597-2jfzfqos8 .node ellipse,#mermaid-svg-1753885713597-2jfzfqos8 .node polygon,#mermaid-svg-1753885713597-2jfzfqos8 .node path{fill:#1a1a1a;stroke:#2a2a2a;stroke-width:1px;}#mermaid-svg-1753885713597-2jfzfqos8 .flowchart-label text{text-anchor:middle;}#mermaid-svg-1753885713597-2jfzfqos8 .node .label{text-align:center;}#mermaid-svg-1753885713597-2jfzfqos8 .node.clickable{cursor:pointer;}#mermaid-svg-1753885713597-2jfzfqos8 .arrowheadPath{fill:#e5e5e5;}#mermaid-svg-1753885713597-2jfzfqos8 .edgePath .path{stroke:rgba(204, 204, 204, 0.87);stroke-width:2.0px;}#mermaid-svg-1753885713597-2jfzfqos8 .flowchart-link{stroke:rgba(204, 204, 204, 0.87);fill:none;}#mermaid-svg-1753885713597-2jfzfqos8 .edgeLabel{background-color:#1a1a1a99;text-align:center;}#mermaid-svg-1753885713597-2jfzfqos8 .edgeLabel rect{opacity:0.5;background-color:#1a1a1a99;fill:#1a1a1a99;}#mermaid-svg-1753885713597-2jfzfqos8 .labelBkg{background-color:rgba(26, 26, 26, 0.5);}#mermaid-svg-1753885713597-2jfzfqos8 .cluster rect{fill:rgba(64, 64, 64, 0.47);stroke:#30373a;stroke-width:1px;}#mermaid-svg-1753885713597-2jfzfqos8 .cluster text{fill:#ffffff;}#mermaid-svg-1753885713597-2jfzfqos8 .cluster span,#mermaid-svg-1753885713597-2jfzfqos8 p{color:#ffffff;}#mermaid-svg-1753885713597-2jfzfqos8 div.mermaidTooltip{position:absolute;text-align:center;max-width:200px;padding:2px;font-family:"trebuchet ms",verdana,arial,sans-serif;font-size:12px;background:#88c0d0;border:1px solid #30373a;border-radius:2px;pointer-events:none;z-index:100;}#mermaid-svg-1753885713597-2jfzfqos8 .flowchartTitleText{text-anchor:middle;font-size:18px;fill:rgba(204, 204, 204, 0.87);}#mermaid-svg-1753885713597-2jfzfqos8 :root{--mermaid-font-family:"trebuchet ms",verdana,arial,sans-serif;}#mermaid-svg-1753885713597-2jfzfqos8 .agent&gt;*{fill:#e1f5fe!important;}#mermaid-svg-1753885713597-2jfzfqos8 .agent span{fill:#e1f5fe!important;}#mermaid-svg-1753885713597-2jfzfqos8 .tool&gt;*{fill:#f3e5f5!important;}#mermaid-svg-1753885713597-2jfzfqos8 .tool span{fill:#f3e5f5!important;}#mermaid-svg-1753885713597-2jfzfqos8 .thinking&gt;*{fill:#fff3e0!important;}#mermaid-svg-1753885713597-2jfzfqos8 .thinking span{fill:#fff3e0!important;}#mermaid-svg-1753885713597-2jfzfqos8 .merge&gt;*{fill:#e8f5e8!important;}#mermaid-svg-1753885713597-2jfzfqos8 .merge span{fill:#e8f5e8!important;}#mermaid-svg-1753885713597-2jfzfqos8 .response&gt;*{fill:#fce4ec!important;}#mermaid-svg-1753885713597-2jfzfqos8 .response span{fill:#fce4ec!important;}</style><g><marker orient="auto" markerHeight="12" markerWidth="12" markerUnits="userSpaceOnUse" refY="5" refX="6" viewBox="0 0 10 10" class="marker flowchart" id="mermaid-svg-1753885713597-2jfzfqos8_flowchart-pointEnd"><path style="stroke-width: 1; stroke-dasharray: 1, 0;" class="arrowMarkerPath" d="M 0 0 L 10 5 L 0 10 z"/></marker><marker orient="auto" markerHeight="12" markerWidth="12" markerUnits="userSpaceOnUse" refY="5" refX="4.5" viewBox="0 0 10 10" class="marker flowchart" id="mermaid-svg-1753885713597-2jfzfqos8_flowchart-pointStart"><path style="stroke-width: 1; stroke-dasharray: 1, 0;" class="arrowMarkerPath" d="M 0 5 L 10 10 L 10 0 z"/></marker><marker orient="auto" markerHeight="11" markerWidth="11" markerUnits="userSpaceOnUse" refY="5" refX="11" viewBox="0 0 10 10" class="marker flowchart" id="mermaid-svg-1753885713597-2jfzfqos8_flowchart-circleEnd"><circle style="stroke-width: 1; stroke-dasharray: 1, 0;" class="arrowMarkerPath" r="5" cy="5" cx="5"/></marker><marker orient="auto" markerHeight="11" markerWidth="11" markerUnits="userSpaceOnUse" refY="5" refX="-1" viewBox="0 0 10 10" class="marker flowchart" id="mermaid-svg-1753885713597-2jfzfqos8_flowchart-circleStart"><circle style="stroke-width: 1; stroke-dasharray: 1, 0;" class="arrowMarkerPath" r="5" cy="5" cx="5"/></marker><marker orient="auto" markerHeight="11" markerWidth="11" markerUnits="userSpaceOnUse" refY="5.2" refX="12" viewBox="0 0 11 11" class="marker cross flowchart" id="mermaid-svg-1753885713597-2jfzfqos8_flowchart-crossEnd"><path style="stroke-width: 2; stroke-dasharray: 1, 0;" class="arrowMarkerPath" d="M 1,1 l 9,9 M 10,1 l -9,9"/></marker><marker orient="auto" markerHeight="11" markerWidth="11" markerUnits="userSpaceOnUse" refY="5.2" refX="-1" viewBox="0 0 11 11" class="marker cross flowchart" id="mermaid-svg-1753885713597-2jfzfqos8_flowchart-crossStart"><path style="stroke-width: 2; stroke-dasharray: 1, 0;" class="arrowMarkerPath" d="M 1,1 l 9,9 M 10,1 l -9,9"/></marker><g class="root"><g class="clusters"/><g class="edgePaths"><path marker-end="url(#mermaid-svg-1753885713597-2jfzfqos8_flowchart-pointEnd)" style="fill:none;" class="edge-thickness-normal edge-pattern-solid flowchart-link LS-A LE-B" id="L-A-B-0" d="M612.248,36L612.248,40.167C612.248,44.333,612.248,52.667,612.248,60.117C612.248,67.567,612.248,74.133,612.248,77.417L612.248,80.7"/><path marker-end="url(#mermaid-svg-1753885713597-2jfzfqos8_flowchart-pointEnd)" style="fill:none;" class="edge-thickness-normal edge-pattern-solid flowchart-link LS-B LE-C" id="L-B-C-0" d="M520.041,114.96L475.118,120.3C430.194,125.64,340.347,136.32,295.424,144.943C250.5,153.567,250.5,160.133,250.5,163.417L250.5,166.7"/><path marker-end="url(#mermaid-svg-1753885713597-2jfzfqos8_flowchart-pointEnd)" style="fill:none;" class="edge-thickness-normal edge-pattern-solid flowchart-link LS-C LE-D1" id="L-C-D1-0" d="M177.543,207.501L159.826,211.751C142.109,216.001,106.676,224.5,88.959,233.575C71.242,242.65,71.242,252.3,71.242,257.125L71.242,261.95"/><path marker-end="url(#mermaid-svg-1753885713597-2jfzfqos8_flowchart-pointEnd)" style="fill:none;" class="edge-thickness-normal edge-pattern-solid flowchart-link LS-C LE-D2" id="L-C-D2-0" d="M250.5,208L250.5,212.167C250.5,216.333,250.5,224.667,250.5,233.658C250.5,242.65,250.5,252.3,250.5,257.125L250.5,261.95"/><path marker-end="url(#mermaid-svg-1753885713597-2jfzfqos8_flowchart-pointEnd)" style="fill:none;" class="edge-thickness-normal edge-pattern-solid flowchart-link LS-C LE-D3" id="L-C-D3-0" d="M316.334,208L331.573,212.167C346.812,216.333,377.291,224.667,392.53,233.658C407.77,242.65,407.77,252.3,407.77,257.125L407.77,261.95"/><path marker-end="url(#mermaid-svg-1753885713597-2jfzfqos8_flowchart-pointEnd)" style="fill:none;" class="edge-thickness-normal edge-pattern-solid flowchart-link LS-B LE-E" id="L-B-E-0" d="M677.468,122L692.565,126.167C707.662,130.333,737.856,138.667,752.954,146.117C768.051,153.567,768.051,160.133,768.051,163.417L768.051,166.7"/><path marker-end="url(#mermaid-svg-1753885713597-2jfzfqos8_flowchart-pointEnd)" style="fill:none;" class="edge-thickness-normal edge-pattern-solid flowchart-link LS-E LE-F1" id="L-E-F1-0" d="M690.699,206.15L669.267,210.625C647.835,215.1,604.97,224.05,583.538,231.808C562.105,239.567,562.105,246.133,562.105,249.417L562.105,252.7"/><path marker-end="url(#mermaid-svg-1753885713597-2jfzfqos8_flowchart-pointEnd)" style="fill:none;" class="edge-thickness-normal edge-pattern-solid flowchart-link LS-E LE-F2" id="L-E-F2-0" d="M845.402,206.15L866.835,210.625C888.267,215.1,931.132,224.05,952.564,231.808C973.996,239.567,973.996,246.133,973.996,249.417L973.996,252.7"/><path marker-end="url(#mermaid-svg-1753885713597-2jfzfqos8_flowchart-pointEnd)" style="fill:none;" class="edge-thickness-normal edge-pattern-solid flowchart-link LS-F1 LE-G1" id="L-F1-G1-0" d="M562.105,312.5L562.105,316.667C562.105,320.833,562.105,329.167,562.105,336.617C562.105,344.067,562.105,350.633,562.105,353.917L562.105,357.2"/><path marker-end="url(#mermaid-svg-1753885713597-2jfzfqos8_flowchart-pointEnd)" style="fill:none;" class="edge-thickness-normal edge-pattern-solid flowchart-link LS-G1 LE-H1" id="L-G1-H1-0" d="M562.105,418.5L562.105,422.667C562.105,426.833,562.105,435.167,562.105,442.617C562.105,450.067,562.105,456.633,562.105,459.917L562.105,463.2"/><path marker-end="url(#mermaid-svg-1753885713597-2jfzfqos8_flowchart-pointEnd)" style="fill:none;" class="edge-thickness-normal edge-pattern-solid flowchart-link LS-H1 LE-I1" id="L-H1-I1-0" d="M519.001,504.5L509.023,508.667C499.045,512.833,479.089,521.167,469.111,528.617C459.133,536.067,459.133,542.633,459.133,545.917L459.133,549.2"/><path marker-end="url(#mermaid-svg-1753885713597-2jfzfqos8_flowchart-pointEnd)" style="fill:none;" class="edge-thickness-normal edge-pattern-solid flowchart-link LS-H1 LE-I2" id="L-H1-I2-0" d="M605.21,504.5L615.188,508.667C625.166,512.833,645.122,521.167,655.1,528.617C665.078,536.067,665.078,542.633,665.078,545.917L665.078,549.2"/><path marker-end="url(#mermaid-svg-1753885713597-2jfzfqos8_flowchart-pointEnd)" style="fill:none;" class="edge-thickness-normal edge-pattern-solid flowchart-link LS-I1 LE-J1" id="L-I1-J1-0" d="M459.133,609L459.133,613.167C459.133,617.333,459.133,625.667,468.296,633.66C477.459,641.653,495.784,649.305,504.947,653.131L514.11,656.958"/><path marker-end="url(#mermaid-svg-1753885713597-2jfzfqos8_flowchart-pointEnd)" style="fill:none;" class="edge-thickness-normal edge-pattern-solid flowchart-link LS-I2 LE-J1" id="L-I2-J1-0" d="M665.078,609L665.078,613.167C665.078,617.333,665.078,625.667,655.915,633.66C646.752,641.653,628.427,649.305,619.264,653.131L610.101,656.958"/><path marker-end="url(#mermaid-svg-1753885713597-2jfzfqos8_flowchart-pointEnd)" style="fill:none;" class="edge-thickness-normal edge-pattern-solid flowchart-link LS-J1 LE-K1" id="L-J1-K1-0" d="M562.105,695L562.105,699.167C562.105,703.333,562.105,711.667,562.105,719.117C562.105,726.567,562.105,733.133,562.105,736.417L562.105,739.7"/><path marker-end="url(#mermaid-svg-1753885713597-2jfzfqos8_flowchart-pointEnd)" style="fill:none;" class="edge-thickness-normal edge-pattern-solid flowchart-link LS-F2 LE-G2" id="L-F2-G2-0" d="M973.996,312.5L973.996,316.667C973.996,320.833,973.996,329.167,973.996,336.617C973.996,344.067,973.996,350.633,973.996,353.917L973.996,357.2"/><path marker-end="url(#mermaid-svg-1753885713597-2jfzfqos8_flowchart-pointEnd)" style="fill:none;" class="edge-thickness-normal edge-pattern-solid flowchart-link LS-G2 LE-H2" id="L-G2-H2-0" d="M973.996,418.5L973.996,422.667C973.996,426.833,973.996,435.167,973.996,442.617C973.996,450.067,973.996,456.633,973.996,459.917L973.996,463.2"/><path marker-end="url(#mermaid-svg-1753885713597-2jfzfqos8_flowchart-pointEnd)" style="fill:none;" class="edge-thickness-normal edge-pattern-solid flowchart-link LS-H2 LE-I3" id="L-H2-I3-0" d="M930.891,504.5L920.913,508.667C910.935,512.833,890.979,521.167,881.001,528.617C871.023,536.067,871.023,542.633,871.023,545.917L871.023,549.2"/><path marker-end="url(#mermaid-svg-1753885713597-2jfzfqos8_flowchart-pointEnd)" style="fill:none;" class="edge-thickness-normal edge-pattern-solid flowchart-link LS-H2 LE-I4" id="L-H2-I4-0" d="M1017.101,504.5L1027.079,508.667C1037.057,512.833,1057.013,521.167,1066.991,528.617C1076.969,536.067,1076.969,542.633,1076.969,545.917L1076.969,549.2"/><path marker-end="url(#mermaid-svg-1753885713597-2jfzfqos8_flowchart-pointEnd)" style="fill:none;" class="edge-thickness-normal edge-pattern-solid flowchart-link LS-I3 LE-J2" id="L-I3-J2-0" d="M871.023,609L871.023,613.167C871.023,617.333,871.023,625.667,880.186,633.66C889.349,641.653,907.675,649.305,916.838,653.131L926.001,656.958"/><path marker-end="url(#mermaid-svg-1753885713597-2jfzfqos8_flowchart-pointEnd)" style="fill:none;" class="edge-thickness-normal edge-pattern-solid flowchart-link LS-I4 LE-J2" id="L-I4-J2-0" d="M1076.969,609L1076.969,613.167C1076.969,617.333,1076.969,625.667,1067.806,633.66C1058.643,641.653,1040.317,649.305,1031.154,653.131L1021.992,656.958"/><path marker-end="url(#mermaid-svg-1753885713597-2jfzfqos8_flowchart-pointEnd)" style="fill:none;" class="edge-thickness-normal edge-pattern-solid flowchart-link LS-J2 LE-K2" id="L-J2-K2-0" d="M973.996,695L973.996,699.167C973.996,703.333,973.996,711.667,973.996,719.117C973.996,726.567,973.996,733.133,973.996,736.417L973.996,739.7"/><path marker-end="url(#mermaid-svg-1753885713597-2jfzfqos8_flowchart-pointEnd)" style="fill:none;" class="edge-thickness-normal edge-pattern-solid flowchart-link LS-K1 LE-L" id="L-K1-L-0" d="M562.105,801L562.105,805.167C562.105,809.333,562.105,817.667,581.254,825.832C600.403,833.996,638.701,841.993,657.85,845.991L676.999,849.989"/><path marker-end="url(#mermaid-svg-1753885713597-2jfzfqos8_flowchart-pointEnd)" style="fill:none;" class="edge-thickness-normal edge-pattern-solid flowchart-link LS-K2 LE-L" id="L-K2-L-0" d="M973.996,801L973.996,805.167C973.996,809.333,973.996,817.667,954.847,825.832C935.698,833.996,897.4,841.993,878.251,845.991L859.102,849.989"/><path marker-end="url(#mermaid-svg-1753885713597-2jfzfqos8_flowchart-pointEnd)" style="fill:none;" class="edge-thickness-normal edge-pattern-solid flowchart-link LS-L LE-M" id="L-L-M-0" d="M768.051,887L768.051,891.167C768.051,895.333,768.051,903.667,768.051,911.117C768.051,918.567,768.051,925.133,768.051,928.417L768.051,931.7"/><path marker-end="url(#mermaid-svg-1753885713597-2jfzfqos8_flowchart-pointEnd)" style="fill:none;" class="edge-thickness-normal edge-pattern-solid flowchart-link LS-M LE-N" id="L-M-N-0" d="M768.051,993L768.051,997.167C768.051,1001.333,768.051,1009.667,768.051,1017.117C768.051,1024.567,768.051,1031.133,768.051,1034.417L768.051,1037.7"/><path marker-end="url(#mermaid-svg-1753885713597-2jfzfqos8_flowchart-pointEnd)" style="fill:none;" class="edge-thickness-normal edge-pattern-solid flowchart-link LS-N LE-O" id="L-N-O-0" d="M768.051,1079L768.051,1083.167C768.051,1087.333,768.051,1095.667,768.051,1103.117C768.051,1110.567,768.051,1117.133,768.051,1120.417L768.051,1123.7"/></g><g class="edgeLabels"><g class="edgeLabel"><g transform="translate(0, 0)" class="label"><foreignObject height="0" width="0"><div style="display: inline-block; white-space: nowrap;" xmlns="http://www.w3.org/1999/xhtml"><span class="edgeLabel"></span></div></foreignObject></g></g><g class="edgeLabel"><g transform="translate(0, 0)" class="label"><foreignObject height="0" width="0"><div style="display: inline-block; white-space: nowrap;" xmlns="http://www.w3.org/1999/xhtml"><span class="edgeLabel"></span></div></foreignObject></g></g><g class="edgeLabel"><g transform="translate(0, 0)" class="label"><foreignObject height="0" width="0"><div style="display: inline-block; white-space: nowrap;" xmlns="http://www.w3.org/1999/xhtml"><span class="edgeLabel"></span></div></foreignObject></g></g><g class="edgeLabel"><g transform="translate(0, 0)" class="label"><foreignObject height="0" width="0"><div style="display: inline-block; white-space: nowrap;" xmlns="http://www.w3.org/1999/xhtml"><span class="edgeLabel"></span></div></foreignObject></g></g><g class="edgeLabel"><g transform="translate(0, 0)" class="label"><foreignObject height="0" width="0"><div style="display: inline-block; white-space: nowrap;" xmlns="http://www.w3.org/1999/xhtml"><span class="edgeLabel"></span></div></foreignObject></g></g><g class="edgeLabel"><g transform="translate(0, 0)" class="label"><foreignObject height="0" width="0"><div style="display: inline-block; white-space: nowrap;" xmlns="http://www.w3.org/1999/xhtml"><span class="edgeLabel"></span></div></foreignObject></g></g><g class="edgeLabel"><g transform="translate(0, 0)" class="label"><foreignObject height="0" width="0"><div style="display: inline-block; white-space: nowrap;" xmlns="http://www.w3.org/1999/xhtml"><span class="edgeLabel"></span></div></foreignObject></g></g><g class="edgeLabel"><g transform="translate(0, 0)" class="label"><foreignObject height="0" width="0"><div style="display: inline-block; white-space: nowrap;" xmlns="http://www.w3.org/1999/xhtml"><span class="edgeLabel"></span></div></foreignObject></g></g><g class="edgeLabel"><g transform="translate(0, 0)" class="label"><foreignObject height="0" width="0"><div style="display: inline-block; white-space: nowrap;" xmlns="http://www.w3.org/1999/xhtml"><span class="edgeLabel"></span></div></foreignObject></g></g><g class="edgeLabel"><g transform="translate(0, 0)" class="label"><foreignObject height="0" width="0"><div style="display: inline-block; white-space: nowrap;" xmlns="http://www.w3.org/1999/xhtml"><span class="edgeLabel"></span></div></foreignObject></g></g><g class="edgeLabel"><g transform="translate(0, 0)" class="label"><foreignObject height="0" width="0"><div style="display: inline-block; white-space: nowrap;" xmlns="http://www.w3.org/1999/xhtml"><span class="edgeLabel"></span></div></foreignObject></g></g><g class="edgeLabel"><g transform="translate(0, 0)" class="label"><foreignObject height="0" width="0"><div style="display: inline-block; white-space: nowrap;" xmlns="http://www.w3.org/1999/xhtml"><span class="edgeLabel"></span></div></foreignObject></g></g><g class="edgeLabel"><g transform="translate(0, 0)" class="label"><foreignObject height="0" width="0"><div style="display: inline-block; white-space: nowrap;" xmlns="http://www.w3.org/1999/xhtml"><span class="edgeLabel"></span></div></foreignObject></g></g><g class="edgeLabel"><g transform="translate(0, 0)" class="label"><foreignObject height="0" width="0"><div style="display: inline-block; white-space: nowrap;" xmlns="http://www.w3.org/1999/xhtml"><span class="edgeLabel"></span></div></foreignObject></g></g><g class="edgeLabel"><g transform="translate(0, 0)" class="label"><foreignObject height="0" width="0"><div style="display: inline-block; white-space: nowrap;" xmlns="http://www.w3.org/1999/xhtml"><span class="edgeLabel"></span></div></foreignObject></g></g><g class="edgeLabel"><g transform="translate(0, 0)" class="label"><foreignObject height="0" width="0"><div style="display: inline-block; white-space: nowrap;" xmlns="http://www.w3.org/1999/xhtml"><span class="edgeLabel"></span></div></foreignObject></g></g><g class="edgeLabel"><g transform="translate(0, 0)" class="label"><foreignObject height="0" width="0"><div style="display: inline-block; white-space: nowrap;" xmlns="http://www.w3.org/1999/xhtml"><span class="edgeLabel"></span></div></foreignObject></g></g><g class="edgeLabel"><g transform="translate(0, 0)" class="label"><foreignObject height="0" width="0"><div style="display: inline-block; white-space: nowrap;" xmlns="http://www.w3.org/1999/xhtml"><span class="edgeLabel"></span></div></foreignObject></g></g><g class="edgeLabel"><g transform="translate(0, 0)" class="label"><foreignObject height="0" width="0"><div style="display: inline-block; white-space: nowrap;" xmlns="http://www.w3.org/1999/xhtml"><span class="edgeLabel"></span></div></foreignObject></g></g><g class="edgeLabel"><g transform="translate(0, 0)" class="label"><foreignObject height="0" width="0"><div style="display: inline-block; white-space: nowrap;" xmlns="http://www.w3.org/1999/xhtml"><span class="edgeLabel"></span></div></foreignObject></g></g><g class="edgeLabel"><g transform="translate(0, 0)" class="label"><foreignObject height="0" width="0"><div style="display: inline-block; white-space: nowrap;" xmlns="http://www.w3.org/1999/xhtml"><span class="edgeLabel"></span></div></foreignObject></g></g><g class="edgeLabel"><g transform="translate(0, 0)" class="label"><foreignObject height="0" width="0"><div style="display: inline-block; white-space: nowrap;" xmlns="http://www.w3.org/1999/xhtml"><span class="edgeLabel"></span></div></foreignObject></g></g><g class="edgeLabel"><g transform="translate(0, 0)" class="label"><foreignObject height="0" width="0"><div style="display: inline-block; white-space: nowrap;" xmlns="http://www.w3.org/1999/xhtml"><span class="edgeLabel"></span></div></foreignObject></g></g><g class="edgeLabel"><g transform="translate(0, 0)" class="label"><foreignObject height="0" width="0"><div style="display: inline-block; white-space: nowrap;" xmlns="http://www.w3.org/1999/xhtml"><span class="edgeLabel"></span></div></foreignObject></g></g><g class="edgeLabel"><g transform="translate(0, 0)" class="label"><foreignObject height="0" width="0"><div style="display: inline-block; white-space: nowrap;" xmlns="http://www.w3.org/1999/xhtml"><span class="edgeLabel"></span></div></foreignObject></g></g><g class="edgeLabel"><g transform="translate(0, 0)" class="label"><foreignObject height="0" width="0"><div style="display: inline-block; white-space: nowrap;" xmlns="http://www.w3.org/1999/xhtml"><span class="edgeLabel"></span></div></foreignObject></g></g><g class="edgeLabel"><g transform="translate(0, 0)" class="label"><foreignObject height="0" width="0"><div style="display: inline-block; white-space: nowrap;" xmlns="http://www.w3.org/1999/xhtml"><span class="edgeLabel"></span></div></foreignObject></g></g></g><g class="nodes"><g transform="translate(612.248046875, 18)" id="flowchart-A-2308" class="node default default flowchart-label"><rect height="36" width="109.6328125" y="-18" x="-54.81640625" ry="0" rx="0" style="" class="basic label-container"/><g transform="translate(-47.31640625, -10.5)" style="" class="label"><rect/><foreignObject height="21" width="94.6328125"><div style="display: inline-block; white-space: nowrap;" xmlns="http://www.w3.org/1999/xhtml"><span class="nodeLabel">👤 User Input</span></div></foreignObject></g></g><g transform="translate(612.248046875, 104)" id="flowchart-B-2309" class="node default agent flowchart-label"><rect height="36" width="184.4140625" y="-18" x="-92.20703125" ry="0" rx="0" style="" class="basic label-container"/><g transform="translate(-84.70703125, -10.5)" style="" class="label"><rect/><foreignObject height="21" width="169.4140625"><div style="display: inline-block; white-space: nowrap;" xmlns="http://www.w3.org/1999/xhtml"><span class="nodeLabel">🤖 Agent (Team Leader)</span></div></foreignObject></g></g><g transform="translate(250.5, 190)" id="flowchart-C-2311" class="node default tool flowchart-label"><rect height="36" width="145.9140625" y="-18" x="-72.95703125" ry="0" rx="0" style="" class="basic label-container"/><g transform="translate(-65.45703125, -10.5)" style="" class="label"><rect/><foreignObject height="21" width="130.9140625"><div style="display: inline-block; white-space: nowrap;" xmlns="http://www.w3.org/1999/xhtml"><span class="nodeLabel">🔧 Tools Container</span></div></foreignObject></g></g><g transform="translate(71.2421875, 285.25)" id="flowchart-D1-2313" class="node default tool flowchart-label"><rect height="36" width="142.484375" y="-18" x="-71.2421875" ry="0" rx="0" style="" class="basic label-container"/><g transform="translate(-63.7421875, -10.5)" style="" class="label"><rect/><foreignObject height="21" width="127.484375"><div style="display: inline-block; white-space: nowrap;" xmlns="http://www.w3.org/1999/xhtml"><span class="nodeLabel">📋 assignTask Tool</span></div></foreignObject></g></g><g transform="translate(250.5, 285.25)" id="flowchart-D2-2315" class="node default tool flowchart-label"><rect height="36" width="116.03125" y="-18" x="-58.015625" ry="0" rx="0" style="" class="basic label-container"/><g transform="translate(-50.515625, -10.5)" style="" class="label"><rect/><foreignObject height="21" width="101.03125"><div style="display: inline-block; white-space: nowrap;" xmlns="http://www.w3.org/1999/xhtml"><span class="nodeLabel">🔍 search Tool</span></div></foreignObject></g></g><g transform="translate(407.76953125, 285.25)" id="flowchart-D3-2317" class="node default tool flowchart-label"><rect height="36" width="98.5078125" y="-18" x="-49.25390625" ry="0" rx="0" style="" class="basic label-container"/><g transform="translate(-41.75390625, -10.5)" style="" class="label"><rect/><foreignObject height="21" width="83.5078125"><div style="display: inline-block; white-space: nowrap;" xmlns="http://www.w3.org/1999/xhtml"><span class="nodeLabel">📊 calc Tool</span></div></foreignObject></g></g><g transform="translate(768.05078125, 190)" id="flowchart-E-2319" class="node default thinking flowchart-label"><rect height="36" width="154.703125" y="-18" x="-77.3515625" ry="0" rx="0" style="" class="basic label-container"/><g transform="translate(-69.8515625, -10.5)" style="" class="label"><rect/><foreignObject height="21" width="139.703125"><div style="display: inline-block; white-space: nowrap;" xmlns="http://www.w3.org/1999/xhtml"><span class="nodeLabel">💭 Agent Thinking 1</span></div></foreignObject></g></g><g transform="translate(562.10546875, 285.25)" id="flowchart-F1-2321" class="node default tool flowchart-label"><rect height="54.5" width="110.1640625" y="-27.25" x="-55.08203125" ry="0" rx="0" style="" class="basic label-container"/><g transform="translate(-47.58203125, -19.75)" style="" class="label"><rect/><foreignObject height="39.5" width="95.1640625"><div style="display: inline-block; white-space: nowrap;" xmlns="http://www.w3.org/1999/xhtml"><span class="nodeLabel">⚡ Tool Call 1<br />(assignTask)</span></div></foreignObject></g></g><g transform="translate(973.99609375, 285.25)" id="flowchart-F2-2323" class="node default tool flowchart-label"><rect height="54.5" width="110.1640625" y="-27.25" x="-55.08203125" ry="0" rx="0" style="" class="basic label-container"/><g transform="translate(-47.58203125, -19.75)" style="" class="label"><rect/><foreignObject height="39.5" width="95.1640625"><div style="display: inline-block; white-space: nowrap;" xmlns="http://www.w3.org/1999/xhtml"><span class="nodeLabel">⚡ Tool Call 2<br />(assignTask)</span></div></foreignObject></g></g><g transform="translate(562.10546875, 390.5)" id="flowchart-G1-2325" class="node default agent flowchart-label"><rect height="56" width="121.5390625" y="-28" x="-60.76953125" ry="0" rx="0" style="" class="basic label-container"/><g transform="translate(-53.26953125, -20.5)" style="" class="label"><rect/><foreignObject height="41" width="106.5390625"><div style="display: inline-block; white-space: nowrap;" xmlns="http://www.w3.org/1999/xhtml"><span class="nodeLabel">🤖 Sub-Agent 1<br />(시장 분석 전문)</span></div></foreignObject></g></g><g transform="translate(562.10546875, 486.5)" id="flowchart-H1-2327" class="node default thinking flowchart-label"><rect height="36" width="186.8125" y="-18" x="-93.40625" ry="0" rx="0" style="" class="basic label-container"/><g transform="translate(-85.90625, -10.5)" style="" class="label"><rect/><foreignObject height="21" width="171.8125"><div style="display: inline-block; white-space: nowrap;" xmlns="http://www.w3.org/1999/xhtml"><span class="nodeLabel">💭 Sub-Agent 1 Thinking</span></div></foreignObject></g></g><g transform="translate(459.1328125, 581.75)" id="flowchart-I1-2329" class="node default tool flowchart-label"><rect height="54.5" width="155.9453125" y="-27.25" x="-77.97265625" ry="0" rx="0" style="" class="basic label-container"/><g transform="translate(-70.47265625, -19.75)" style="" class="label"><rect/><foreignObject height="39.5" width="140.9453125"><div style="display: inline-block; white-space: nowrap;" xmlns="http://www.w3.org/1999/xhtml"><span class="nodeLabel">⚡ Sub-Tool Call 1.1<br />(search)</span></div></foreignObject></g></g><g transform="translate(665.078125, 581.75)" id="flowchart-I2-2331" class="node default tool flowchart-label"><rect height="54.5" width="155.9453125" y="-27.25" x="-77.97265625" ry="0" rx="0" style="" class="basic label-container"/><g transform="translate(-70.47265625, -19.75)" style="" class="label"><rect/><foreignObject height="39.5" width="140.9453125"><div style="display: inline-block; white-space: nowrap;" xmlns="http://www.w3.org/1999/xhtml"><span class="nodeLabel">⚡ Sub-Tool Call 1.2<br />(calc)</span></div></foreignObject></g></g><g transform="translate(562.10546875, 677)" id="flowchart-J1-2333" class="node default merge flowchart-label"><rect height="36" width="123.3125" y="-18" x="-61.65625" ry="0" rx="0" style="" class="basic label-container"/><g transform="translate(-54.15625, -10.5)" style="" class="label"><rect/><foreignObject height="21" width="108.3125"><div style="display: inline-block; white-space: nowrap;" xmlns="http://www.w3.org/1999/xhtml"><span class="nodeLabel">🔄 Sub-Merge 1</span></div></foreignObject></g></g><g transform="translate(562.10546875, 773)" id="flowchart-K1-2337" class="node default response flowchart-label"><rect height="56" width="145.5703125" y="-28" x="-72.78515625" ry="0" rx="0" style="" class="basic label-container"/><g transform="translate(-65.28515625, -20.5)" style="" class="label"><rect/><foreignObject height="41" width="130.5703125"><div style="display: inline-block; white-space: nowrap;" xmlns="http://www.w3.org/1999/xhtml"><span class="nodeLabel">💬 Sub-Response 1<br />(시장 분석 결과)</span></div></foreignObject></g></g><g transform="translate(973.99609375, 390.5)" id="flowchart-G2-2339" class="node default agent flowchart-label"><rect height="56" width="121.5390625" y="-28" x="-60.76953125" ry="0" rx="0" style="" class="basic label-container"/><g transform="translate(-53.26953125, -20.5)" style="" class="label"><rect/><foreignObject height="41" width="106.5390625"><div style="display: inline-block; white-space: nowrap;" xmlns="http://www.w3.org/1999/xhtml"><span class="nodeLabel">🤖 Sub-Agent 2<br />(메뉴 구성 전문)</span></div></foreignObject></g></g><g transform="translate(973.99609375, 486.5)" id="flowchart-H2-2341" class="node default thinking flowchart-label"><rect height="36" width="186.8125" y="-18" x="-93.40625" ry="0" rx="0" style="" class="basic label-container"/><g transform="translate(-85.90625, -10.5)" style="" class="label"><rect/><foreignObject height="21" width="171.8125"><div style="display: inline-block; white-space: nowrap;" xmlns="http://www.w3.org/1999/xhtml"><span class="nodeLabel">💭 Sub-Agent 2 Thinking</span></div></foreignObject></g></g><g transform="translate(871.0234375, 581.75)" id="flowchart-I3-2343" class="node default tool flowchart-label"><rect height="54.5" width="155.9453125" y="-27.25" x="-77.97265625" ry="0" rx="0" style="" class="basic label-container"/><g transform="translate(-70.47265625, -19.75)" style="" class="label"><rect/><foreignObject height="39.5" width="140.9453125"><div style="display: inline-block; white-space: nowrap;" xmlns="http://www.w3.org/1999/xhtml"><span class="nodeLabel">⚡ Sub-Tool Call 2.1<br />(search)</span></div></foreignObject></g></g><g transform="translate(1076.96875, 581.75)" id="flowchart-I4-2345" class="node default tool flowchart-label"><rect height="54.5" width="155.9453125" y="-27.25" x="-77.97265625" ry="0" rx="0" style="" class="basic label-container"/><g transform="translate(-70.47265625, -19.75)" style="" class="label"><rect/><foreignObject height="39.5" width="140.9453125"><div style="display: inline-block; white-space: nowrap;" xmlns="http://www.w3.org/1999/xhtml"><span class="nodeLabel">⚡ Sub-Tool Call 2.2<br />(calc)</span></div></foreignObject></g></g><g transform="translate(973.99609375, 677)" id="flowchart-J2-2347" class="node default merge flowchart-label"><rect height="36" width="123.3125" y="-18" x="-61.65625" ry="0" rx="0" style="" class="basic label-container"/><g transform="translate(-54.15625, -10.5)" style="" class="label"><rect/><foreignObject height="21" width="108.3125"><div style="display: inline-block; white-space: nowrap;" xmlns="http://www.w3.org/1999/xhtml"><span class="nodeLabel">🔄 Sub-Merge 2</span></div></foreignObject></g></g><g transform="translate(973.99609375, 773)" id="flowchart-K2-2351" class="node default response flowchart-label"><rect height="56" width="145.5703125" y="-28" x="-72.78515625" ry="0" rx="0" style="" class="basic label-container"/><g transform="translate(-65.28515625, -20.5)" style="" class="label"><rect/><foreignObject height="41" width="130.5703125"><div style="display: inline-block; white-space: nowrap;" xmlns="http://www.w3.org/1999/xhtml"><span class="nodeLabel">💬 Sub-Response 2<br />(메뉴 구성 결과)</span></div></foreignObject></g></g><g transform="translate(768.05078125, 869)" id="flowchart-L-2353" class="node default merge flowchart-label"><rect height="36" width="171.7265625" y="-18" x="-85.86328125" ry="0" rx="0" style="" class="basic label-container"/><g transform="translate(-78.36328125, -10.5)" style="" class="label"><rect/><foreignObject height="21" width="156.7265625"><div style="display: inline-block; white-space: nowrap;" xmlns="http://www.w3.org/1999/xhtml"><span class="nodeLabel">🔄 Main Merge Results</span></div></foreignObject></g></g><g transform="translate(768.05078125, 965)" id="flowchart-M-2357" class="node default thinking flowchart-label"><rect height="56" width="183.3828125" y="-28" x="-91.69140625" ry="0" rx="0" style="" class="basic label-container"/><g transform="translate(-84.19140625, -20.5)" style="" class="label"><rect/><foreignObject height="41" width="168.3828125"><div style="display: inline-block; white-space: nowrap;" xmlns="http://www.w3.org/1999/xhtml"><span class="nodeLabel">💭 Agent Thinking 2<br />(Team Leader 종합 분석)</span></div></foreignObject></g></g><g transform="translate(768.05078125, 1061)" id="flowchart-N-2359" class="node default response flowchart-label"><rect height="36" width="140.78125" y="-18" x="-70.390625" ry="0" rx="0" style="" class="basic label-container"/><g transform="translate(-62.890625, -10.5)" style="" class="label"><rect/><foreignObject height="21" width="125.78125"><div style="display: inline-block; white-space: nowrap;" xmlns="http://www.w3.org/1999/xhtml"><span class="nodeLabel">💬 Final Response</span></div></foreignObject></g></g><g transform="translate(768.05078125, 1147)" id="flowchart-O-2361" class="node default default flowchart-label"><rect height="36" width="85.6875" y="-18" x="-42.84375" ry="0" rx="0" style="" class="basic label-container"/><g transform="translate(-35.34375, -10.5)" style="" class="label"><rect/><foreignObject height="21" width="70.6875"><div style="display: inline-block; white-space: nowrap;" xmlns="http://www.w3.org/1999/xhtml"><span class="nodeLabel">📤 Output</span></div></foreignObject></g></g></g></g></g></svg>